<svg xmlns="http://www.w3.org/2000/svg" viewBox="0 0 280.9847 63.9433"><path d="M167.561 64.055h-5.275c-.218-.23-.511-.188-.785-.212a26.632 26.632 0 0 1-13.044-4.265 2.223 2.223 0 0 0-1.363-.306c-2.558.002-5.118.068-7.672-.025a4.934 4.934 0 0 0-3.722 1.328c-3.649 3.16-8.055 3.576-12.635 2.886a8.29 8.29 0 0 1-5.854-3.576 1.456 1.456 0 0 0-1.42-.62c-3.156.017-6.314.036-9.47-.007a3.611 3.611 0 0 0-2.953 1.075 11.9 11.9 0 0 1-8.574 3.396 10.12 10.12 0 0 1-8.275-3.372 15.403 15.403 0 0 1-3.803 2.393c-4.444 1.907-11.03 1.095-13.325-3.115-.22-.403-.57-.362-.926-.362q-7.313 0-14.626-.003a1.218 1.218 0 0 0-1.054.403 11.808 11.808 0 0 1-9.236 4.055c-3.41.046-6.378-.992-8.453-3.864a1.378 1.378 0 0 0-1.3-.6q-6.414.025-12.828-.002a1.787 1.787 0 0 0-1.456.595 11.805 11.805 0 0 1-3.794 2.67 12.9 12.9 0 0 1-8.884.764C1.706 61.881-.95 57.034.311 51.425c1.134-5.045 2.316-10.08 3.484-15.117 1.907-8.218 3.718-16.46 5.767-24.642A12.94 12.94 0 0 1 20.022 1.52a12.702 12.702 0 0 1 2.612-.307c8.99-.02 17.981-.056 26.972.02a9.51 9.51 0 0 1 7.75 3.373 3.362 3.362 0 0 0 4.545.103A12.102 12.102 0 0 1 68.757.621a26.98 26.98 0 0 1 6.921-.32c3.56.176 6.517 1.497 8.359 4.712.288.504.683.46 1.116.46h11.03a1.19 1.19 0 0 0 1.08-.337c2.76-3.343 6.477-4.669 10.665-4.844 4.101-.17 7.66.99 10.06 4.58a1.223 1.223 0 0 0 1.168.613q4.975-.033 9.95-.003a1.253 1.253 0 0 0 1.108-.522 12.194 12.194 0 0 1 9.58-4.674c3.884-.107 7.276 1.018 9.3 4.68.271.492.625.513 1.078.511q3.656-.012 7.313.002a2.25 2.25 0 0 0 1.239-.342A35.175 35.175 0 0 1 178.722.026c4.905.175 9.613 1.228 13.68 4.099a7.528 7.528 0 0 0 4.618 1.4 5.755 5.755 0 0 0 4.57-1.797c4.933-4.91 14.63-4.845 17.952 1.587.023.043.133.042.238.071a12.494 12.494 0 0 1 8.338-4.89 32.15 32.15 0 0 1 7.293-.159c3.43.238 6.263 1.538 7.975 4.682.312.575.777.45 1.231.45 3.517.008 7.034-.02 10.55.024a1.996 1.996 0 0 0 1.721-.798 12.052 12.052 0 0 1 7.564-4.22A29.356 29.356 0 0 1 271.03.3c5.766.411 8.235 2.45 9.87 7.961.01.033.056.055.085.083v2.63c-.05.06-.128.114-.144.182-1.154 5.083-2.286 10.17-3.458 15.248-2.138 9.266-4.234 18.542-6.482 27.781a12.197 12.197 0 0 1-7.112 8.507c-4.693 2.135-10.126.984-12.787-2.682a3.076 3.076 0 0 0-3.875-.206 11.287 11.287 0 0 1-6.441 3.652c-4.041.71-7.74.154-10.5-3.27a2.958 2.958 0 0 0-4.19-.204 12.673 12.673 0 0 1-3.568 2.582c-4.304 2.09-10.658 1.482-13.322-2.867-.489-.798-1.14-.52-1.682.041a13.322 13.322 0 0 1-3.23 2.45c-4.362 2.375-10.3 2.175-13.307-1.03a5.971 5.971 0 0 0-5.32-1.892 22.257 22.257 0 0 1-2.278-.001 3.502 3.502 0 0 0-1.93.47 35.136 35.136 0 0 1-10.078 3.661 24.5 24.5 0 0 0-3.72.66Zm91.671-34.828.234.092-1.385 6.007c-1.35 5.878-2.724 11.75-4.04 17.636-.67 2.989.684 5.463 3.198 6.041a7.164 7.164 0 0 0 3.778-.144c3.446-1.064 5.042-3.658 5.8-6.957q2.71-11.778 5.432-23.553c1.349-5.878 2.743-11.746 3.986-17.646.662-3.142-1.02-5.298-4.187-5.71a28.061 28.061 0 0 0-6.684-.016 7.774 7.774 0 0 0-5.127 2.773 18.264 18.264 0 0 0-2.3 3.478Q251 24.155 244.053 37.074c-.403.75-.83 1.485-1.408 2.515-.137-1.77-.244-3.187-.357-4.604q-.681-8.565-1.368-17.128c-.223-2.736-.42-5.474-.725-8.2-.324-2.904-1.754-4.29-4.65-4.725a31.049 31.049 0 0 0-4.546-.1c-5.136-.014-8.098 2.39-9.242 7.367q-3.642 15.834-7.325 31.66c-.732 3.17-1.495 6.334-2.14 9.521a4.502 4.502 0 0 0 3.929 5.709 7.804 7.804 0 0 0 8.62-6.098c1.123-4.464 2.1-8.965 3.142-13.45l2.465-10.61c.316 1.68.5 3.338.651 4.999.648 7.13 1.277 14.26 1.931 21.389a3.954 3.954 0 0 0 3.462 3.707 7.613 7.613 0 0 0 8.516-4.067q5.169-9.272 10.282-18.575 1.976-3.576 3.942-7.157Zm-150.61-1.813c1.826 4.52 3.533 8.748 5.244 12.975 2.055 5.079 4.13 10.15 6.161 15.238a4.724 4.724 0 0 0 3.602 3.31c5.608.971 10.882-.732 12.509-7.501 2.226-9.263 4.333-18.553 6.474-27.836 1.016-4.407 2.067-8.809 2.96-13.242.576-2.856-1.01-4.91-3.872-5.382a8.064 8.064 0 0 0-9.612 6.33c-1.95 8.267-3.845 16.547-5.753 24.824a1.527 1.527 0 0 1-.394.913c-.116-.227-.223-.395-.294-.577-3.558-9.136-7.153-18.259-10.645-27.42a6.003 6.003 0 0 0-5.628-4.213 12.99 12.99 0 0 0-3.57.29c-4.314.89-6.367 3.852-7.287 7.895-1.639 7.198-3.332 14.385-4.99 21.579-1.424 6.187-2.863 12.372-4.233 18.572-.656 2.966.795 5.3 3.47 5.837a8.216 8.216 0 0 0 10.019-6.414c1.398-5.99 2.753-11.99 4.136-17.983.532-2.307 1.09-4.607 1.703-7.195ZM71.642 47.79c.25 2.092.541 4.132.726 6.181.318 3.517 1.454 4.767 4.86 5.198 4.298.543 8.81-3.356 8.791-7.66-.017-3.989-.856-7.896-1.317-11.84-.618-5.29-1.351-10.566-2.039-15.847-.636-4.886-1.242-9.777-1.932-14.655-.347-2.45-1.88-3.808-4.358-4.209a31.415 31.415 0 0 0-3.705-.136 8.981 8.981 0 0 0-8.685 4.778c-7.811 12.942-15.727 25.82-23.592 38.73a18.054 18.054 0 0 0-2.161 4.499c-.81 2.911.46 5.46 3.17 6.112a7.855 7.855 0 0 0 8.882-3.54c1.297-2.281 2.702-4.502 3.984-6.792a1.563 1.563 0 0 1 1.607-.898c4.874.032 9.748.015 14.622.019.352 0 .703.035 1.147.06Zm72.444-7.232c0 .518-.027 1.037.007 1.553.04.595.135 1.186.205 1.779.831 7.081 4.473 12.033 11.368 14.159 9.802 3.023 18.93 1.34 27.196-4.667 3.318-2.41 5.909-5.467 6.886-9.604a4 4 0 0 0-1.96-4.586 6.952 6.952 0 0 0-8.108.951c-1.564 1.313-2.885 2.865-4.31 4.314a10.823 10.823 0 0 1-9.77 3.33c-3.358-.49-5.76-2.206-6.803-5.535a12.348 12.348 0 0 1-.585-3.639 27.13 27.13 0 0 1 2.926-12.656c2.697-5.26 6.48-9.346 12.85-9.812 4.305-.314 6.39.951 7.908 4.19.336.719.675 1.438 1.057 2.133a4.841 4.841 0 0 0 3.3 2.549 7.854 7.854 0 0 0 9.213-9.526c-1.26-4.978-4.759-7.955-9.413-9.495a28.305 28.305 0 0 0-23.981 2.531c-12.17 7.123-17.13 18.484-17.986 32.03ZM24.535 26.7c.645-2.843 1.294-5.456 1.811-8.094.221-1.13.73-1.398 1.84-1.39 6.31.046 12.623.09 18.931-.042 4.337-.091 6.724-2.39 7.367-6.663a3.64 3.64 0 0 0-2.55-4.298 9.464 9.464 0 0 0-3.176-.485q-12.643.01-25.285.005c-5.173.002-8.434 2.504-9.623 7.526-2.03 8.569-4 17.151-5.98 25.732-1.089 4.716-2.22 9.424-3.192 14.164-.638 3.11 1.124 5.434 4.212 5.903a8.588 8.588 0 0 0 9.713-6.714c1.064-4.518 2.124-9.038 3.112-13.573.189-.869.547-1.042 1.354-1.037 5.113.034 10.226.01 15.34.021a9.09 9.09 0 0 0 4.375-1.013 7.102 7.102 0 0 0 3.266-7.138c-.507-2.053-2.11-2.9-5.499-2.904H24.535Zm191.443-16.258c.022-3.914-2.67-6.083-6.37-5.576a8.696 8.696 0 0 0-7.742 7.195q-3.154 13.75-6.331 27.494c-1.056 4.604-2.158 9.199-3.095 13.826a4.639 4.639 0 0 0 4.102 5.663 8.554 8.554 0 0 0 9.854-6.804q4.069-17.506 8.108-35.019c.548-2.393 1.24-4.762 1.474-6.778Z" style="fill:#fff"/><path d="M70.716 37.293H60.594l8.486-14.948.264.047 1.372 14.9Z" style="fill:#fff"/></svg>