<?xml version="1.0" standalone="no"?>
<!DOCTYPE svg PUBLIC "-//W3C//DTD SVG 20010904//EN"
 "http://www.w3.org/TR/2001/REC-SVG-20010904/DTD/svg10.dtd">
<svg version="1.0" xmlns="http://www.w3.org/2000/svg"
 width="300.000000pt" height="300.000000pt" viewBox="0 0 300.000000 300.000000"
 preserveAspectRatio="xMidYMid meet">
<metadata>
Created by potrace 1.14, written by Peter Selinger 2001-2017
</metadata>
<g transform="translate(0.000000,300.000000) scale(0.100000,-0.100000)"
fill="#000000" stroke="none">
<path d="M1355 2954 c-417 -56 -747 -231 -1017 -538 -148 -169 -338 -481 -338
-556 0 -28 9 -14 56 81 123 251 317 499 515 659 220 176 468 279 789 326 159
23 450 16 603 -15 210 -42 422 -135 568 -247 140 -107 265 -279 388 -535 66
-134 80 -158 81 -131 0 22 -24 83 -70 175 -181 370 -377 564 -696 690 -243 95
-586 131 -879 91z"/>
<path d="M1285 2726 c-188 -31 -361 -99 -482 -190 -171 -129 -327 -368 -418
-642 -33 -100 -45 -123 -70 -140 -27 -18 -30 -24 -30 -76 -1 -48 -5 -62 -27
-85 -32 -35 -48 -65 -48 -92 0 -12 -7 -21 -15 -21 -8 0 -22 -11 -31 -25 -21
-32 -14 -81 18 -132 13 -23 21 -49 19 -69 -1 -18 3 -35 9 -39 7 -4 9 -26 4
-64 -6 -52 -4 -60 21 -89 15 -18 40 -39 55 -47 46 -24 47 -50 5 -87 -45 -39
-59 -72 -46 -107 5 -14 12 -42 16 -63 4 -26 23 -55 71 -107 36 -39 62 -71 56
-71 -14 0 -69 -109 -77 -151 -5 -28 -20 -48 -61 -83 -72 -62 -141 -161 -170
-244 -29 -82 -30 -102 -5 -102 14 0 20 10 24 41 3 23 19 70 36 104 32 65 148
199 181 210 12 4 21 19 25 47 9 52 27 95 54 130 l21 26 49 -47 c56 -55 157
-110 254 -140 74 -22 91 -20 82 10 -8 24 7 25 28 1 26 -28 21 -63 -20 -141
-36 -71 -36 -72 -20 -107 9 -19 17 -57 17 -84 0 -38 4 -50 15 -50 24 0 29 47
11 114 l-17 62 29 59 c39 79 46 114 28 147 -14 26 -13 29 12 47 15 10 57 34
93 54 l67 35 128 -5 c71 -3 130 -6 131 -7 2 -1 -17 -47 -41 -102 -45 -105 -82
-212 -115 -331 -19 -69 -19 -73 -2 -73 14 0 25 27 55 128 37 123 95 276 103
269 2 -2 -4 -24 -12 -48 -26 -73 2 -128 76 -149 27 -8 41 -6 71 9 l38 18 0
-42 c0 -65 -11 -104 -30 -110 -10 -3 -30 -21 -45 -40 l-26 -35 35 0 c25 0 36
4 36 15 0 8 5 15 10 15 6 0 10 -7 10 -15 0 -12 14 -15 70 -15 39 0 70 4 70 9
0 15 -30 41 -46 41 -11 0 -14 21 -14 107 l0 107 33 -31 c17 -18 44 -36 60 -42
31 -12 42 -36 59 -127 l13 -64 70 1 c38 0 64 3 58 6 -10 3 -13 51 -13 191 1
176 2 185 16 158 9 -16 22 -83 30 -150 24 -211 23 -206 51 -206 24 0 24 2 17
43 -4 23 -8 88 -8 143 -1 79 -5 106 -17 120 -30 35 -69 111 -69 135 l0 24 128
1 c106 0 143 5 226 27 104 29 130 42 119 61 -3 6 3 3 15 -8 12 -10 28 -40 37
-67 13 -39 26 -56 63 -81 126 -86 244 -230 278 -340 13 -43 22 -58 36 -58 25
0 16 46 -29 138 -38 80 -122 177 -230 267 -47 38 -71 68 -96 119 l-34 67 36
19 c46 23 115 89 136 130 11 21 16 52 14 89 -3 75 5 87 38 61 50 -39 132 -16
154 43 9 26 24 38 71 60 45 22 66 39 88 74 38 59 47 118 26 167 -16 37 -15 39
11 70 62 73 78 156 42 215 -14 23 -18 42 -14 62 9 39 -12 133 -41 192 -13 27
-24 66 -24 88 0 60 -22 94 -75 114 -41 16 -48 24 -96 114 -68 128 -128 211
-213 297 -157 156 -374 265 -653 324 -126 27 -455 36 -578 16z m558 -45 c196
-40 333 -91 482 -184 165 -102 292 -251 404 -473 27 -55 35 -63 73 -75 48 -16
68 -44 68 -100 0 -20 12 -62 26 -93 27 -60 41 -155 30 -201 -6 -25 -8 -26 -25
-11 -36 33 -106 13 -133 -37 -37 -69 -24 -167 32 -237 28 -36 37 -41 61 -36
31 6 39 -6 39 -61 0 -58 -41 -117 -102 -147 -28 -14 -57 -26 -64 -26 -6 0 -15
-16 -18 -35 -7 -38 -38 -65 -72 -65 -29 0 -64 45 -64 80 0 20 -13 38 -51 70
-69 58 -93 113 -85 190 5 45 2 67 -14 104 -30 72 -27 142 10 198 16 24 39 53
50 63 14 13 20 31 20 63 0 53 24 108 57 129 21 14 24 22 18 50 -5 28 -1 38 24
64 17 17 31 36 31 43 0 22 -88 194 -132 259 -164 241 -396 348 -820 378 -334
23 -629 -28 -822 -143 -224 -133 -382 -381 -450 -705 -14 -67 -14 -76 1 -108
14 -29 15 -44 6 -86 -9 -47 -8 -52 8 -56 12 -4 20 -18 24 -42 16 -102 18 -94
-22 -116 -59 -32 -119 -114 -133 -180 -6 -31 -9 -68 -6 -81 7 -28 -5 -31 -26
-6 -25 27 -30 58 -18 102 9 35 9 45 -4 59 -21 24 -20 27 10 26 20 0 32 11 60
56 66 106 51 179 -36 179 -22 0 -40 3 -40 8 0 17 32 65 55 84 23 18 24 23 18
79 -6 60 -6 60 25 71 29 11 34 22 72 137 23 70 66 174 95 234 180 361 405 529
791 592 129 21 406 14 547 -14z m-13 -136 c381 -52 579 -185 734 -493 40 -80
43 -94 21 -112 -13 -10 -15 -9 -15 9 0 65 -71 137 -205 206 -93 49 -153 49
-201 1 -28 -28 -34 -41 -34 -77 0 -25 8 -57 19 -75 37 -60 208 -154 281 -154
27 0 30 -3 32 -35 1 -19 2 -43 2 -52 2 -30 -28 -25 -139 22 -111 47 -217 75
-285 75 -33 0 -50 10 -117 65 -87 72 -108 73 -73 0 12 -25 20 -48 18 -51 -3
-2 -70 1 -149 7 -199 16 -450 6 -558 -21 -113 -28 -112 -30 -85 147 8 58 13
108 10 110 -24 24 -71 -75 -88 -187 -15 -97 -21 -107 -63 -112 -31 -4 -38 -1
-46 19 -11 30 -37 30 -48 -1 -6 -15 -34 -35 -85 -59 -42 -20 -92 -48 -111 -62
-39 -31 -51 -27 -57 15 -4 25 1 36 24 55 32 27 120 62 181 71 70 11 97 30 97
67 0 17 -4 37 -8 44 -22 34 -103 34 -188 -2 -53 -22 -53 -11 0 14 25 12 86 31
137 41 118 23 146 55 100 111 -17 21 -28 24 -78 23 -32 -1 -82 -11 -111 -22
-38 -15 -50 -17 -41 -6 14 17 130 54 173 54 98 0 145 31 132 86 -11 42 -66 59
-147 45 -36 -7 -90 -23 -119 -37 -29 -13 -55 -23 -57 -21 -7 7 121 120 175
155 100 63 262 118 417 141 100 14 439 12 555 -4z m-1256 -517 c-19 -22 -42
-55 -52 -74 -16 -35 -16 -36 7 -55 l23 -19 -32 -36 c-46 -53 -67 -101 -53
-122 6 -9 18 -16 27 -16 25 3 22 -87 -4 -111 -19 -17 -20 -17 -26 1 -3 11 -11
31 -16 47 -6 15 -8 49 -4 77 10 74 63 244 97 311 26 53 31 58 48 47 19 -11 18
-14 -15 -50z m1769 41 c48 -24 107 -77 107 -96 0 -35 -144 10 -185 58 -14 17
-25 37 -25 45 0 21 54 18 103 -7z m-1286 -250 c10 -10 33 -8 110 11 85 21 122
24 283 25 102 0 244 -2 315 -5 l130 -5 3 27 3 27 45 -35 c34 -25 55 -34 85
-34 65 0 176 -30 285 -76 57 -24 115 -45 129 -46 38 -3 35 -62 -6 -114 -17
-22 -38 -53 -45 -71 -20 -45 -17 -124 5 -182 14 -37 17 -66 13 -118 -4 -63 -7
-70 -36 -88 -30 -20 -42 -45 -63 -135 l-9 -35 -43 58 c-23 32 -50 61 -58 64
-22 9 -63 -41 -63 -77 0 -25 -3 -28 -32 -26 -44 2 -60 -31 -52 -105 5 -55 5
-56 -24 -68 -39 -16 -108 -88 -126 -132 -19 -45 -53 -60 -201 -90 -83 -17
-111 -19 -136 -10 -20 7 -37 7 -48 1 -22 -11 -278 -5 -391 10 -158 20 -283 50
-315 74 -48 37 -107 64 -173 79 -34 8 -73 22 -87 31 -22 15 -24 21 -19 56 5
33 3 42 -20 65 -23 22 -34 26 -73 23 l-46 -3 -33 63 c-40 75 -45 151 -15 217
19 42 85 108 127 127 24 11 24 11 18 120 l-7 109 31 29 c26 24 30 33 26 62 -3
18 -1 44 5 58 8 22 10 22 10 5 2 -53 43 -57 110 -12 27 19 78 46 115 62 36 15
66 32 66 38 0 5 6 4 14 -2 20 -17 126 3 144 26 6 9 12 33 13 52 l1 36 12 -37
c6 -20 17 -43 23 -49z m1471 -16 l-23 -24 -11 33 c-10 30 -9 34 20 53 l31 21
3 -29 c2 -20 -4 -37 -20 -54z m-88 -765 c0 -34 5 -90 11 -125 9 -49 8 -71 -1
-94 -7 -16 -9 -33 -5 -37 13 -13 45 40 45 77 1 34 2 35 15 17 21 -28 19 -72
-6 -123 -31 -65 -103 -116 -223 -158 -57 -20 -86 -45 -51 -45 9 0 14 -4 10 -9
-13 -22 -251 -57 -300 -45 -27 7 -28 7 -21 75 3 37 10 79 16 93 15 40 75 100
125 125 42 21 46 26 41 50 -14 58 -16 97 -7 110 7 12 18 9 58 -14 79 -45 93
-63 93 -113 0 -60 24 -51 28 10 3 44 1 48 -47 90 -55 46 -66 84 -38 123 13 17
16 15 45 -27 17 -24 48 -61 71 -80 51 -47 73 -81 71 -110 -4 -46 -2 -52 16
-37 23 19 13 76 -21 127 -24 36 -26 47 -20 89 12 83 41 120 78 101 13 -7 17
-22 17 -70z m59 -12 c9 -11 10 -20 1 -35 -16 -32 -30 -25 -30 14 0 37 10 44
29 21z m38 -81 c-4 -8 -11 -15 -17 -15 -6 0 -6 7 2 20 14 22 24 19 15 -5z
m-2169 -36 c7 -12 12 -22 10 -23 -22 -17 -84 -56 -90 -56 -20 0 -5 45 23 71
37 35 40 35 57 8z m126 -35 c19 -18 19 -16 6 -48 -5 -14 -23 -32 -40 -41 -16
-8 -30 -19 -30 -23 0 -4 51 -18 113 -31 61 -13 133 -30 158 -38 79 -24 159
-107 159 -163 0 -24 -97 -130 -118 -130 -7 0 -46 14 -85 30 -84 36 -171 96
-164 114 7 18 0 26 -58 68 -62 45 -131 116 -139 144 -7 23 14 47 91 100 53 37
84 42 107 18z m423 -290 c-3 -3 -12 -4 -19 -1 -8 3 -5 6 6 6 11 1 17 -2 13 -5z
m51 -60 c4 -2 -73 -44 -81 -44 -2 0 -2 14 1 30 4 29 6 30 41 24 20 -4 38 -8
39 -10z m494 -14 c-41 -25 -50 -25 -27 0 10 11 28 20 39 20 17 0 15 -4 -12
-20z m382 5 c-4 -8 -10 -15 -15 -15 -5 0 -9 7 -9 15 0 8 7 15 15 15 9 0 12 -6
9 -15z m-60 -17 c3 -13 6 -43 6 -68 l0 -45 -48 51 c-26 29 -48 56 -50 60 -1 5
14 12 35 15 21 3 41 7 44 8 4 0 9 -9 13 -21z m-414 5 c-1 -10 -39 -60 -40 -51
0 14 23 58 32 58 4 0 8 -3 8 -7z m229 -74 c7 -27 11 -52 9 -55 -9 -8 -36 7
-42 23 -7 19 3 83 13 83 4 0 13 -23 20 -51z m-109 1 c0 -41 -13 -50 -54 -34
-22 8 -20 17 9 48 33 36 45 33 45 -14z m270 -116 c0 -20 -9 -39 -25 -54 l-25
-24 16 33 c15 31 15 57 -1 106 -6 16 -3 16 14 -5 11 -14 21 -39 21 -56z m-298
37 c4 -4 1 -17 -8 -29 -20 -29 -74 -31 -74 -3 0 41 11 52 44 45 17 -3 34 -9
38 -13z m178 -54 c0 -6 -9 -2 -20 8 -11 10 -17 22 -13 28 6 10 33 -19 33 -36z
m-234 -37 c21 0 33 -4 29 -10 -18 -29 -105 2 -105 37 0 9 6 7 20 -7 13 -13 33
-20 56 -20z m394 -126 c0 -57 -4 -104 -8 -104 -8 0 -42 138 -42 168 0 15 33
50 43 45 4 -2 7 -51 7 -109z"/>
<path d="M772 1724 c-64 -32 -112 -85 -112 -124 0 -72 102 -112 377 -146 163
-21 196 -16 201 29 7 63 -97 179 -212 237 -81 41 -177 42 -254 4z m253 -29
c108 -52 216 -183 183 -222 -15 -18 -58 -15 -264 16 -138 21 -205 41 -241 74
-30 27 -29 48 3 87 71 84 203 102 319 45z"/>
<path d="M1834 1740 c-164 -33 -330 -222 -259 -294 44 -43 132 -43 355 0 153
29 244 60 281 95 37 34 36 50 -3 94 -73 84 -242 131 -374 105z m261 -54 c33
-15 72 -39 88 -53 71 -69 9 -110 -248 -164 -223 -46 -355 -38 -355 22 0 30 35
91 72 125 92 86 147 105 283 101 84 -3 110 -8 160 -31z"/>
<path d="M996 1411 c5 -5 32 -16 60 -25 81 -26 141 -69 212 -150 44 -50 52
-40 9 11 -68 82 -121 118 -225 154 -62 21 -70 23 -56 10z"/>
<path d="M673 1400 c-45 -10 -95 -42 -103 -65 -5 -13 -2 -34 8 -55 9 -19 16
-55 17 -79 1 -63 32 -87 127 -96 78 -8 168 -37 251 -82 44 -24 61 -28 127 -26
98 2 154 17 179 50 28 34 26 68 -5 131 -47 95 -169 182 -301 216 -64 17 -241
20 -300 6z m293 -31 c24 -6 44 -12 44 -14 0 -1 -22 -24 -49 -51 -49 -49 -81
-121 -81 -182 0 -21 -3 -24 -27 -18 -16 4 -68 13 -117 21 -48 8 -94 19 -102
26 -8 6 -14 27 -14 46 0 127 176 214 346 172z m74 -69 c-12 -23 -48 -36 -62
-22 -7 7 0 17 22 31 38 23 55 19 40 -9z m14 -134 c-14 -58 34 -98 86 -71 29
15 46 47 35 65 -11 17 26 11 61 -11 42 -26 47 -70 11 -94 -27 -17 -171 -38
-202 -29 -38 11 -145 67 -145 75 0 13 67 63 102 76 51 18 59 16 52 -11z"/>
<path d="M1844 1260 c-99 -22 -191 -68 -221 -109 -45 -60 -28 -64 82 -20 152
60 250 70 436 43 61 -9 112 -14 115 -11 12 11 -11 36 -47 50 -28 11 -39 21
-39 37 0 11 -7 23 -16 27 -21 8 -282 -34 -359 -58 -75 -23 -80 -23 -30 2 22
11 72 25 112 31 40 6 70 15 67 20 -6 10 -1 10 -100 -12z"/>
<path d="M1671 943 c-48 -25 -91 -29 -140 -12 -25 9 -38 8 -65 -5 -43 -20 -75
-20 -104 0 -12 8 -22 11 -22 5 0 -6 9 -15 20 -21 11 -6 20 -21 20 -33 1 -42
37 -105 72 -123 45 -25 132 -24 183 1 54 27 87 93 83 162 l-3 50 -44 -24z"/>
<path d="M48 1513 c-36 -3 -48 -8 -48 -20 0 -13 9 -15 50 -10 39 5 50 3 50 -8
0 -8 -21 -112 -46 -232 -26 -120 -48 -254 -50 -298 -5 -112 5 -76 71 255 30
151 60 283 65 292 17 31 23 30 -92 21z"/>
<path d="M2290 479 c0 -6 9 -24 20 -39 l20 -28 -52 -30 c-63 -35 -176 -77
-235 -87 -28 -4 -43 -12 -43 -22 0 -11 7 -13 33 -8 75 17 187 58 261 98 79 41
105 67 69 67 -10 0 -26 14 -35 30 -17 30 -38 40 -38 19z"/>
<path d="M433 433 c-30 -54 -37 -83 -21 -83 11 1 59 86 59 107 1 22 -20 9 -38
-24z"/>
<path d="M2140 449 c0 -28 24 -89 34 -86 12 4 9 53 -5 80 -11 19 -29 23 -29 6z"/>
<path d="M1954 399 c4 -23 11 -50 17 -60 14 -27 33 -24 25 4 -4 12 -10 39 -13
60 -4 24 -11 37 -21 37 -12 0 -13 -8 -8 -41z"/>
<path d="M545 349 c-25 -51 -27 -68 -6 -54 13 7 51 79 51 95 0 25 -21 6 -45
-41z"/>
<path d="M356 336 c3 -8 35 -34 71 -57 86 -56 273 -111 273 -80 0 4 -32 16
-72 26 -91 22 -150 47 -210 91 -51 36 -71 43 -62 20z"/>
<path d="M705 304 c-8 -20 -15 -42 -15 -48 1 -19 50 44 50 65 0 31 -18 22 -35
-17z"/>
<path d="M990 100 c-44 -88 -47 -100 -24 -100 16 0 96 158 87 173 -11 18 -26
1 -63 -73z"/>
</g>
</svg>
